<?xml version="1.0" encoding="UTF-8" standalone="no"?>
<!DOCTYPE svg PUBLIC "-//W3C//DTD SVG 1.1//EN"
 "http://www.w3.org/Graphics/SVG/1.1/DTD/svg11.dtd">
<!-- Generated by graphviz version 2.40.1 (20161225.0304)
 -->
<!-- Title: dependencies Pages: 1 -->
<svg width="566pt" height="284pt"
 viewBox="0.00 0.00 566.00 284.00" xmlns="http://www.w3.org/2000/svg" xmlns:xlink="http://www.w3.org/1999/xlink">
<g id="graph0" class="graph" transform="scale(1 1) rotate(0) translate(4 280)">
<title>dependencies</title>
<polygon fill="#ffffff" stroke="transparent" points="-4,4 -4,-280 562,-280 562,4 -4,4"/>
<text text-anchor="start" x="258.0091" y="-42.4" font-family="sans-serif" font-weight="bold" font-size="14.00" fill="#000000">Legend</text>
<polygon fill="#ffffb3" stroke="transparent" points="45,-10 45,-30 65,-30 65,-10 45,-10"/>
<text text-anchor="start" x="68.629" y="-15.4" font-family="sans-serif" font-size="14.00" fill="#000000"> &#160;Declarations</text>
<polygon fill="#8dd3c7" stroke="transparent" points="158,-10 158,-30 178,-30 178,-10 158,-10"/>
<text text-anchor="start" x="181.7251" y="-15.4" font-family="sans-serif" font-size="14.00" fill="#000000"> &#160;Module</text>
<polygon fill="#80b1d3" stroke="transparent" points="244,-10 244,-30 264,-30 264,-10 244,-10"/>
<text text-anchor="start" x="267.7812" y="-15.4" font-family="sans-serif" font-size="14.00" fill="#000000"> &#160;Bootstrap</text>
<polygon fill="#fdb462" stroke="transparent" points="341,-10 341,-30 361,-30 361,-10 341,-10"/>
<text text-anchor="start" x="364.6732" y="-15.4" font-family="sans-serif" font-size="14.00" fill="#000000"> &#160;Providers</text>
<polygon fill="#fb8072" stroke="transparent" points="437,-10 437,-30 457,-30 457,-10 437,-10"/>
<text text-anchor="start" x="460.7258" y="-15.4" font-family="sans-serif" font-size="14.00" fill="#000000"> &#160;Exports</text>
<g id="clust1" class="cluster">
<title>cluster_AppModule</title>
<polygon fill="none" stroke="#000000" stroke-dasharray="1,5" points="8,-70 8,-268 550,-268 550,-70 8,-70"/>
</g>
<g id="clust2" class="cluster">
<title>cluster_AppModule_declarations</title>
<polygon fill="none" stroke="#000000" points="16,-78 16,-130 542,-130 542,-78 16,-78"/>
</g>
<g id="clust8" class="cluster">
<title>cluster_AppModule_bootstrap</title>
<polygon fill="none" stroke="#000000" points="265,-208 265,-260 389,-260 389,-208 265,-208"/>
</g>
<!-- AppComponent -->
<g id="node1" class="node">
<title>AppComponent</title>
<polygon fill="#ffffb3" stroke="#000000" points="533.9399,-122 428.0601,-122 428.0601,-86 533.9399,-86 533.9399,-122"/>
<text text-anchor="middle" x="481" y="-99.8" font-family="Times,serif" font-size="14.00" fill="#000000">AppComponent</text>
</g>
<!-- AppModule -->
<g id="node4" class="node">
<title>AppModule</title>
<polygon fill="#8dd3c7" stroke="#000000" points="368.6571,-187 365.6571,-191 344.6571,-191 341.6571,-187 285.3429,-187 285.3429,-151 368.6571,-151 368.6571,-187"/>
<text text-anchor="middle" x="327" y="-164.8" font-family="Times,serif" font-size="14.00" fill="#000000">AppModule</text>
</g>
<!-- AppComponent&#45;&gt;AppModule -->
<g id="edge1" class="edge">
<title>AppComponent&#45;&gt;AppModule</title>
<path fill="none" stroke="#000000" d="M481,-122.1061C481,-141.3391 481,-169 481,-169 481,-169 378.6746,-169 378.6746,-169"/>
<polygon fill="#000000" stroke="#000000" points="378.6747,-165.5001 368.6746,-169 378.6746,-172.5001 378.6747,-165.5001"/>
</g>
<!-- OsmFietsKaartComponent -->
<g id="node2" class="node">
<title>OsmFietsKaartComponent</title>
<polygon fill="#ffffb3" stroke="#000000" points="410.0842,-122 243.9158,-122 243.9158,-86 410.0842,-86 410.0842,-122"/>
<text text-anchor="middle" x="327" y="-99.8" font-family="Times,serif" font-size="14.00" fill="#000000">OsmFietsKaartComponent</text>
</g>
<!-- OsmFietsKaartComponent&#45;&gt;AppModule -->
<g id="edge2" class="edge">
<title>OsmFietsKaartComponent&#45;&gt;AppModule</title>
<path fill="none" stroke="#000000" d="M327,-122.1061C327,-122.1061 327,-140.991 327,-140.991"/>
<polygon fill="#000000" stroke="#000000" points="323.5001,-140.9909 327,-150.991 330.5001,-140.991 323.5001,-140.9909"/>
</g>
<!-- ParkeerlocatieDetailsComponent -->
<g id="node3" class="node">
<title>ParkeerlocatieDetailsComponent</title>
<polygon fill="#ffffb3" stroke="#000000" points="225.5478,-122 24.4522,-122 24.4522,-86 225.5478,-86 225.5478,-122"/>
<text text-anchor="middle" x="125" y="-99.8" font-family="Times,serif" font-size="14.00" fill="#000000">ParkeerlocatieDetailsComponent</text>
</g>
<!-- ParkeerlocatieDetailsComponent&#45;&gt;AppModule -->
<g id="edge3" class="edge">
<title>ParkeerlocatieDetailsComponent&#45;&gt;AppModule</title>
<path fill="none" stroke="#000000" d="M125,-122.1061C125,-141.3391 125,-169 125,-169 125,-169 275.1455,-169 275.1455,-169"/>
<polygon fill="#000000" stroke="#000000" points="275.1455,-172.5001 285.1455,-169 275.1454,-165.5001 275.1455,-172.5001"/>
</g>
<!-- AppComponent  -->
<g id="node5" class="node">
<title>AppComponent </title>
<polygon fill="#80b1d3" stroke="#000000" points="381.439,-252 272.561,-252 272.561,-216 381.439,-216 381.439,-252"/>
<text text-anchor="middle" x="327" y="-229.8" font-family="Times,serif" font-size="14.00" fill="#000000">AppComponent </text>
</g>
<!-- AppModule&#45;&gt;AppComponent  -->
<g id="edge4" class="edge">
<title>AppModule&#45;&gt;AppComponent </title>
<path fill="none" stroke="#000000" stroke-dasharray="1,5" d="M327,-187.1061C327,-187.1061 327,-205.991 327,-205.991"/>
<polygon fill="#000000" stroke="#000000" points="323.5001,-205.9909 327,-215.991 330.5001,-205.991 323.5001,-205.9909"/>
</g>
</g>
</svg>
