<?xml version="1.0" encoding="UTF-8" standalone="no"?>
<!DOCTYPE svg PUBLIC "-//W3C//DTD SVG 1.1//EN"
 "http://www.w3.org/Graphics/SVG/1.1/DTD/svg11.dtd">
<!-- Generated by graphviz version 2.47.3 (20210619.1520)
 -->
<!-- Title: dependencies Pages: 1 -->
<svg width="566pt" height="247pt"
 viewBox="0.00 0.00 566.00 246.80" xmlns="http://www.w3.org/2000/svg" xmlns:xlink="http://www.w3.org/1999/xlink">
<g id="graph0" class="graph" transform="scale(1 1) rotate(0) translate(4 242.8)">
<title>dependencies</title>
<polygon fill="white" stroke="transparent" points="-4,4 -4,-242.8 562,-242.8 562,4 -4,4"/>
<text text-anchor="middle" x="279" y="-8.2" font-family="sans-serif" font-size="14.00">dependencies</text>
<g id="clust1" class="cluster">
<title>cluster_AppModule</title>
<polygon fill="none" stroke="black" stroke-dasharray="1,5" points="8,-32.8 8,-230.8 550,-230.8 550,-32.8 8,-32.8"/>
</g>
<g id="clust2" class="cluster">
<title>cluster_AppModule_declarations</title>
<polygon fill="none" stroke="black" points="16,-40.8 16,-92.8 542,-92.8 542,-40.8 16,-40.8"/>
</g>
<g id="clust8" class="cluster">
<title>cluster_AppModule_bootstrap</title>
<polygon fill="none" stroke="black" points="265,-170.8 265,-222.8 389,-222.8 389,-170.8 265,-170.8"/>
</g>
<!-- AppComponent -->
<g id="node1" class="node">
<title>AppComponent</title>
<polygon fill="#ffffb3" stroke="black" points="533.94,-84.8 428.06,-84.8 428.06,-48.8 533.94,-48.8 533.94,-84.8"/>
<text text-anchor="middle" x="481" y="-62.6" font-family="Times,serif" font-size="14.00">AppComponent</text>
</g>
<!-- AppModule -->
<g id="node4" class="node">
<title>AppModule</title>
<polygon fill="#8dd3c7" stroke="black" points="368.66,-149.8 365.66,-153.8 344.66,-153.8 341.66,-149.8 285.34,-149.8 285.34,-113.8 368.66,-113.8 368.66,-149.8"/>
<text text-anchor="middle" x="327" y="-127.6" font-family="Times,serif" font-size="14.00">AppModule</text>
</g>
<!-- AppComponent&#45;&gt;AppModule -->
<g id="edge1" class="edge">
<title>AppComponent&#45;&gt;AppModule</title>
<path fill="none" stroke="black" d="M481,-84.91C481,-104.14 481,-131.8 481,-131.8 481,-131.8 378.67,-131.8 378.67,-131.8"/>
<polygon fill="black" stroke="black" points="378.67,-128.3 368.67,-131.8 378.67,-135.3 378.67,-128.3"/>
</g>
<!-- OsmFietsKaartComponent -->
<g id="node2" class="node">
<title>OsmFietsKaartComponent</title>
<polygon fill="#ffffb3" stroke="black" points="410.08,-84.8 243.92,-84.8 243.92,-48.8 410.08,-48.8 410.08,-84.8"/>
<text text-anchor="middle" x="327" y="-62.6" font-family="Times,serif" font-size="14.00">OsmFietsKaartComponent</text>
</g>
<!-- OsmFietsKaartComponent&#45;&gt;AppModule -->
<g id="edge2" class="edge">
<title>OsmFietsKaartComponent&#45;&gt;AppModule</title>
<path fill="none" stroke="black" d="M327,-84.91C327,-84.91 327,-103.79 327,-103.79"/>
<polygon fill="black" stroke="black" points="323.5,-103.79 327,-113.79 330.5,-103.79 323.5,-103.79"/>
</g>
<!-- ParkeerlocatieDetailsComponent -->
<g id="node3" class="node">
<title>ParkeerlocatieDetailsComponent</title>
<polygon fill="#ffffb3" stroke="black" points="225.55,-84.8 24.45,-84.8 24.45,-48.8 225.55,-48.8 225.55,-84.8"/>
<text text-anchor="middle" x="125" y="-62.6" font-family="Times,serif" font-size="14.00">ParkeerlocatieDetailsComponent</text>
</g>
<!-- ParkeerlocatieDetailsComponent&#45;&gt;AppModule -->
<g id="edge3" class="edge">
<title>ParkeerlocatieDetailsComponent&#45;&gt;AppModule</title>
<path fill="none" stroke="black" d="M125,-84.91C125,-104.14 125,-131.8 125,-131.8 125,-131.8 275.15,-131.8 275.15,-131.8"/>
<polygon fill="black" stroke="black" points="275.15,-135.3 285.15,-131.8 275.15,-128.3 275.15,-135.3"/>
</g>
<!-- AppComponent  -->
<g id="node5" class="node">
<title>AppComponent </title>
<polygon fill="#80b1d3" stroke="black" points="381.44,-214.8 272.56,-214.8 272.56,-178.8 381.44,-178.8 381.44,-214.8"/>
<text text-anchor="middle" x="327" y="-192.6" font-family="Times,serif" font-size="14.00">AppComponent </text>
</g>
<!-- AppModule&#45;&gt;AppComponent  -->
<g id="edge4" class="edge">
<title>AppModule&#45;&gt;AppComponent </title>
<path fill="none" stroke="black" stroke-dasharray="1,5" d="M327,-149.91C327,-149.91 327,-168.79 327,-168.79"/>
<polygon fill="black" stroke="black" points="323.5,-168.79 327,-178.79 330.5,-168.79 323.5,-168.79"/>
</g>
</g>
</svg>
