<svg version="1.1"
     id="NHLSTENDENLOGO"
     xmlns="http://www.w3.org/2000/svg"
     xmlns:xlink="http://www.w3.org/1999/xlink"
     preserveAspectRatio="xMidYMid meet"
     viewBox="0 0 600 600"
     width="150"
     height="150"
     xml:space="preserve">
<style type="text/css">
	.st999{fill:white;}
</style>
    <g transform="">
<polygon class="st999" points="124.849,125.793 124.849,65.638 115.347,65.638 115.347,105.532 79.397,64.652 76.08,64.652
	76.08,124.806 85.583,124.806 85.583,84.823 121.621,125.793 "></polygon>
<polygon class="st999" points="179.082,124.806 188.585,124.806 188.585,65.638 179.082,65.638 179.082,89.216 149.319,89.216
	149.319,65.638 139.816,65.638 139.816,124.806 149.319,124.806 149.319,97.732 179.082,97.732 "></polygon>
<path class="st999" d="M101.495,204.805c-1.883,1.494-4.348,2.241-7.396,2.241c-5.977,0-11.146-3.138-15.509-9.413l-6.723,5.11
	c2.271,4.004,5.349,7.142,9.233,9.413c3.885,2.271,8.248,3.407,13.089,3.407c5.737,0,10.473-1.569,14.209-4.706
	c3.735-3.138,5.603-7.277,5.603-12.416c0-3.885-1.166-7.112-3.496-9.682c-2.332-2.57-5.887-4.96-10.669-7.172l-6.634-3.048
	c-2.988-1.434-5.11-2.689-6.365-3.765c-1.254-1.076-1.882-2.63-1.882-4.662c0-2.331,0.867-4.109,2.6-5.334
	c1.733-1.225,3.855-1.838,6.365-1.838c5.139,0,9.293,2.39,12.46,7.172l6.634-5.11c-1.852-3.167-4.452-5.722-7.799-7.665
	c-3.347-1.942-7.112-2.913-11.295-2.913c-5.26,0-9.682,1.479-13.269,4.438c-3.586,2.958-5.379,6.828-5.379,11.609
	c0,3.825,1.211,7.023,3.632,9.592c2.419,2.57,5.812,4.841,10.175,6.813l6.543,3.048c3.108,1.434,5.334,2.749,6.68,3.945
	c1.345,1.195,2.017,2.839,2.017,4.93C104.319,201.309,103.378,203.311,101.495,204.805z"></path>
<polygon class="st999" points="149.588,214.577 149.588,163.925 169.58,163.925 169.58,155.409 120.184,155.409 120.184,163.925
	140.085,163.925 140.085,214.577 "></polygon>
<polygon class="st999" points="218.434,206.06 187.954,206.06 187.954,187.323 210.097,187.323 210.097,179.076 187.954,179.076
	187.954,163.925 217.358,163.925 217.358,155.409 178.451,155.409 178.451,214.577 218.434,214.577 "></polygon>
<path class="st999" d="M311.749,155.409h-18.557v59.168h18.557c9.682,0,17.467-2.764,23.354-8.292
	c5.886-5.529,8.83-12.656,8.83-21.382c0-8.785-2.929-15.897-8.785-21.336C329.29,158.128,321.491,155.409,311.749,155.409z
	 M328.065,200.143c-4.064,3.945-9.532,5.917-16.406,5.917h-8.964v-42.045h8.964c6.934,0,12.417,1.897,16.451,5.692
	c4.034,3.795,6.051,8.86,6.051,15.195C334.161,191.118,332.129,196.198,328.065,200.143z"></path>
<polygon class="st999" points="364.726,187.323 386.869,187.323 386.869,179.076 364.726,179.076 364.726,163.925 394.131,163.925
	394.131,155.409 355.223,155.409 355.223,214.577 395.206,214.577 395.206,206.06 364.726,206.06 "></polygon>
<polygon class="st999" points="445.495,155.409 445.495,195.302 409.546,154.422 406.229,154.422 406.229,214.577 415.732,214.577
	415.732,174.593 451.77,215.563 454.998,215.563 454.998,155.409 "></polygon>
<polygon class="st999" points="1.898,278.405 278.6,278.405 278.6,229.403 278.6,214.577 278.6,213.486 278.6,155.409
	268.489,155.409 268.489,195.037 232.773,154.422 229.456,154.422 229.456,214.577 238.959,214.577 238.959,174.593
	268.489,208.164 268.489,213.486 268.489,214.577 268.489,229.403 268.489,268.294 12.008,268.294 12.008,11.813 268.489,11.813
	268.489,70.948 268.489,98.77 268.489,116.239 268.489,116.29 240.128,116.29 232.227,116.29 213.055,116.29 213.055,65.638
	203.552,65.638 203.552,124.806 232.227,124.806 240.128,124.806 255.468,124.806 255.468,124.75 278.6,124.75 278.6,117.598
	278.6,117.288 278.6,116.29 278.6,116.239 278.6,98.77 278.6,70.948 278.6,1.702 1.898,1.702 "></polygon>
<g>
	<path class="st999" d="M14.378,320.06c-3.104,0-5.581,1.028-7.43,3.087v-16.063H1.454v39.241h5.493v-15.278
		c0-1.744,0.55-3.174,1.65-4.29c1.098-1.117,2.501-1.674,4.211-1.674c1.708,0,3.07,0.549,4.081,1.648
		c1.011,1.099,1.516,2.538,1.516,4.317v15.278h5.496v-16.063c0-3.034-0.855-5.494-2.565-7.377
		C19.629,321.002,17.308,320.06,14.378,320.06z"></path>
	<path class="st999" d="M43.47,320.06c-3.803,0-7.012,1.29-9.628,3.871c-2.616,2.581-3.925,5.756-3.925,9.523
		c0,3.767,1.309,6.941,3.925,9.522c2.616,2.581,5.825,3.889,9.628,3.924c3.767,0,6.983-1.3,9.652-3.898
		c2.669-2.599,4.002-5.782,4.002-9.548c0-3.768-1.333-6.942-4.002-9.523C50.453,321.35,47.237,320.06,43.47,320.06z M49.173,339.445
		c-1.535,1.587-3.438,2.381-5.703,2.381c-2.304,0-4.204-0.794-5.705-2.381c-1.499-1.588-2.248-3.567-2.248-5.939
		c0-2.407,0.759-4.403,2.275-5.991c1.518-1.587,3.428-2.397,5.729-2.432c2.267,0.035,4.16,0.846,5.678,2.432
		c1.516,1.588,2.275,3.584,2.275,5.991C51.474,335.878,50.708,337.858,49.173,339.445z"></path>
	<path class="st999" d="M83.548,324.298c-2.059-2.825-5.093-4.237-9.104-4.237c-3.591,0-6.575,1.203-8.946,3.609
		c-2.373,2.407-3.56,5.495-3.56,9.261c0,3.767,1.186,6.854,3.56,9.261c2.371,2.406,5.354,3.609,8.946,3.609
		c3.697,0,6.593-1.203,8.686-3.609v1.779c0,2.407-0.699,4.229-2.093,5.467c-1.395,1.238-3.262,1.857-5.599,1.857
		c-3,0-6.001-1.22-8.999-3.662l-3.036,3.82c3.454,3.244,7.569,4.866,12.349,4.866c3.906,0,7.029-1.098,9.366-3.296
		c2.336-2.198,3.505-5.32,3.505-9.366v-23.021h-5.076V324.298z M80.905,338.895c-1.516,1.396-3.339,2.093-5.467,2.093
		c-2.232,0-4.098-0.741-5.6-2.224c-1.499-1.482-2.248-3.427-2.248-5.834c0-2.372,0.75-4.29,2.248-5.755
		c1.502-1.465,3.368-2.198,5.6-2.198c2.128,0,3.951,0.663,5.467,1.989c1.518,1.325,2.277,3.296,2.277,5.912
		C83.182,335.495,82.423,337.5,80.905,338.895z"></path>
	<path class="st999" d="M108.244,320.06c-3.733,0-6.882,1.298-9.445,3.897c-2.563,2.599-3.846,5.782-3.846,9.549
		c0,3.802,1.309,6.985,3.925,9.549c2.616,2.564,5.912,3.846,9.887,3.846c3.908,0,7.326-1.378,10.257-4.133L116.404,339
		c-2.301,2.024-4.795,3.035-7.48,3.035c-2.234,0-4.098-0.593-5.6-1.779c-1.499-1.187-2.424-2.843-2.772-4.971h19.15
		c0.279-1.221,0.418-2.372,0.418-3.453c0-3.384-1.124-6.192-3.375-8.423C114.495,321.176,111.662,320.06,108.244,320.06z
		 M100.656,330.995c0.42-1.918,1.3-3.445,2.642-4.578c1.343-1.133,2.921-1.7,4.735-1.7c1.85,0,3.401,0.567,4.658,1.7
		c1.256,1.134,1.9,2.66,1.936,4.578H100.656z"></path>
	<path class="st999" d="M136.863,331.309l-2.46-0.994c-1.256-0.489-2.137-0.951-2.642-1.387c-0.507-0.436-0.759-0.985-0.759-1.648
		c0-1.64,1.169-2.459,3.505-2.459c2.337,0,4.343,0.872,6.017,2.616l2.983-3.401c-2.232-2.651-5.198-3.976-8.895-3.976
		c-2.616,0-4.778,0.662-6.488,1.988c-1.708,1.326-2.563,3.14-2.563,5.442c0,1.814,0.55,3.278,1.648,4.395
		c1.098,1.116,2.782,2.145,5.049,3.087l2.616,1.099c1.256,0.523,2.171,0.993,2.746,1.413c0.576,0.418,0.865,1.011,0.865,1.779
		c0,0.942-0.394,1.657-1.177,2.145c-0.786,0.489-1.771,0.733-2.957,0.733c-2.477,0-4.884-1.221-7.221-3.662l-3.14,3.453
		c2.546,3.314,6,4.97,10.36,4.97c2.721,0,4.989-0.688,6.802-2.067c1.814-1.378,2.719-3.304,2.719-5.781
		c0-1.814-0.557-3.305-1.674-4.474C141.084,333.41,139.304,332.321,136.863,331.309z"></path>
	<path class="st999" d="M162.238,325.135c2.755,0,5.059,1.308,6.906,3.924l3.872-3.034c-1.117-1.848-2.606-3.305-4.473-4.369
		c-1.866-1.064-3.985-1.595-6.358-1.595c-3.8,0-7.019,1.29-9.652,3.871c-2.635,2.581-3.951,5.756-3.951,9.523
		c0,3.767,1.316,6.949,3.951,9.548c2.633,2.598,5.852,3.898,9.652,3.898c4.744,0,8.355-1.988,10.831-5.965l-3.872-2.982
		c-1.883,2.581-4.185,3.872-6.906,3.872c-2.337,0-4.264-0.794-5.782-2.381c-1.516-1.588-2.275-3.584-2.275-5.991
		c0-2.337,0.759-4.308,2.275-5.913C157.973,325.937,159.9,325.135,162.238,325.135z"></path>
	<path class="st999" d="M192.008,320.06c-3.104,0-5.581,1.028-7.43,3.087v-16.063h-5.494v39.241h5.494v-15.278
		c0-1.744,0.55-3.174,1.65-4.29c1.098-1.117,2.501-1.674,4.211-1.674c1.709,0,3.07,0.549,4.081,1.648
		c1.011,1.099,1.516,2.538,1.516,4.317v15.278h5.496v-16.063c0-3.034-0.855-5.494-2.565-7.377
		C197.258,321.002,194.938,320.06,192.008,320.06z"></path>
	<path class="st999" d="M221.1,320.06c-3.803,0-7.012,1.29-9.628,3.871c-2.616,2.581-3.925,5.756-3.925,9.523
		c0,3.767,1.309,6.941,3.925,9.522c2.616,2.581,5.825,3.889,9.628,3.924c3.767,0,6.984-1.3,9.652-3.898
		c2.669-2.599,4.002-5.782,4.002-9.548c0-3.768-1.333-6.942-4.002-9.523C228.083,321.35,224.867,320.06,221.1,320.06z
		 M226.803,339.445c-1.535,1.587-3.437,2.381-5.703,2.381c-2.303,0-4.204-0.794-5.705-2.381c-1.499-1.588-2.248-3.567-2.248-5.939
		c0-2.407,0.759-4.403,2.275-5.991c1.518-1.587,3.428-2.397,5.729-2.432c2.267,0.035,4.16,0.846,5.678,2.432
		c1.516,1.588,2.275,3.584,2.275,5.991C229.104,335.878,228.337,337.858,226.803,339.445z"></path>
	<path class="st999" d="M252.962,320.06c-3.801,0-7.01,1.29-9.626,3.871c-2.616,2.581-3.925,5.756-3.925,9.523
		c0,3.767,1.309,6.941,3.925,9.522c2.616,2.581,5.825,3.889,9.626,3.924c3.769,0,6.985-1.3,9.654-3.898
		c2.669-2.599,4.002-5.782,4.002-9.548c0-3.768-1.334-6.942-4.002-9.523C259.947,321.35,256.731,320.06,252.962,320.06z
		 M258.667,339.445c-1.535,1.587-3.437,2.381-5.705,2.381c-2.302,0-4.202-0.794-5.703-2.381c-1.499-1.588-2.249-3.567-2.249-5.939
		c0-2.407,0.759-4.403,2.275-5.991c1.518-1.587,3.428-2.397,5.729-2.432c2.267,0.035,4.16,0.846,5.678,2.432
		c1.516,1.588,2.275,3.584,2.275,5.991C260.968,335.878,260.202,337.858,258.667,339.445z"></path>
	<rect x="272.898" y="307.084" class="st999" width="5.493" height="39.241"></rect>
</g>
    </g>
</svg>